#!OML:ASF E:\Style4\Style4.ASF
:FULLY-SPECIFIED
:DEGREES
2855
root -0.0160915 17.566 -1.32997 -2.03122 -1.24091 2.80567
lowerback 4.53196 2.7867 -1.18009
upperback 1.44487 3.62747 -2.56406
thorax -0.958402 1.81662 -2.16108
lowerneck -0.503713 -4.64901 -6.97859
upperneck 7.76498 -6.85613 11.1141
head 2.99726 -3.2713 4.29651
rclavicle 3.86636e-014 -2.62396e-014
rhumerus 47.9719 15.2221 -16.2273
rradius 99.1142
rwrist -42.7249
rhand -9.07883 28.8896
rfingers 7.12502
rthumb 16.8706 -0.397555
lclavicle 3.86636e-014 -2.62396e-014
lhumerus -0.311891 -43.5293 93.4407
lradius 96.055
lwrist 9.44129
lhand -36.0846 9.44582
lfingers 7.12502
lthumb -9.19147 39.2255
rfemur -13.5722 2.67612 15.5637
rtibia 37.5302
rfoot -20.8282 -11.2395
rtoes -12.233
lfemur -11.421 -1.3775 -21.646
ltibia 34.4524
lfoot -21.1955 8.16758
ltoes -14.628
2856
root -0.0190608 17.5615 -1.32885 -2.07259 -1.1196 2.69162
lowerback 4.54258 2.80348 -1.1452
upperback 1.4636 3.65206 -2.53016
thorax -0.94444 1.82897 -2.1469
lowerneck -0.489458 -4.69169 -7.05225
upperneck 7.75055 -6.91579 11.1711
head 3.00057 -3.30186 4.32397
rclavicle 4.86525e-014 -6.36111e-015
rhumerus 47.7341 16.5788 -15.0799
rradius 99.8914
rwrist -42.7817
rhand -9.05884 28.4331
rfingers 7.12502
rthumb 16.8898 -0.852449
lclavicle 4.86525e-014 -6.36111e-015
lhumerus -0.380216 -43.6478 93.6335
lradius 96.1526
lwrist 9.37235
lhand -36.1386 9.1557
lfingers 7.12502
lthumb -9.2435 38.9331
rfemur -13.5224 2.63912 15.7057
rtibia 37.5996
rfoot -20.8695 -11.3352
rtoes -12.1699
lfemur -11.4597 -1.41173 -21.5074
ltibia 34.5863
lfoot -21.2111 8.05634
ltoes -14.5761
2857
root -0.0208777 17.5569 -1.32803 -2.1048 -0.955844 2.66366
lowerback 4.54524 2.80172 -1.18695
upperback 1.48627 3.64856 -2.51891
thorax -0.926078 1.82722 -2.1113
lowerneck -0.41013 -4.7122 -7.04702
upperneck 7.6479 -6.93654 11.1448
head 2.9579 -3.31705 4.3166
rclavicle 5.86663e-014 -2.3059e-014
rhumerus 47.5585 17.9915 -13.9277
rradius 100.72
rwrist -42.867
rhand -8.93887 27.6219
rfingers 7.12502
rthumb 17.0053 -1.65371
lclavicle 5.86663e-014 -2.3059e-014
lhumerus -0.434444 -43.7387 93.7847
lradius 96.2971
lwrist 9.28841
lhand -36.19 9.0986
lfingers 7.12502
lthumb -9.29317 38.8738
rfemur -13.4974 2.51841 15.7423
rtibia 37.6923
rfoot -20.9312 -11.3839
rtoes -12.0031
lfemur -11.5085 -1.50054 -21.4729
ltibia 34.7132
lfoot -21.2582 7.96932
ltoes -14.5587
2858
root -0.0226465 17.5542 -1.32831 -2.14113 -0.769286 2.68799
lowerback 4.55453 2.79431 -1.26775
upperback 1.51632 3.63561 -2.52462
thorax -0.905363 1.82073 -2.07104
lowerneck -0.410367 -4.72084 -7.11666
upperneck 7.61869 -6.95 11.2233
head 2.95547 -3.3238 4.35179
rclavicle 5.33737e-014 -4.6118e-014
rhumerus 47.4578 19.3981 -12.8117
rradius 101.492
rwrist -42.9661
rhand -8.55889 27.9918
rfingers 7.12502
rthumb 17.371 -1.25197
lclavicle 5.33737e-014 -4.6118e-014
lhumerus -0.502313 -43.8854 93.9592
lradius 96.4128
lwrist 9.09949
lhand -36.2385 9.18253
lfingers 7.12502
lthumb -9.33997 38.9556
rfemur -13.4776 2.43351 15.7149
rtibia 37.8019
rfoot -21.1182 -11.3378
rtoes -11.4158
lfemur -11.5545 -1.59741 -21.4952
ltibia 34.8318
lfoot -21.2722 7.8725
ltoes -14.3958
2859
root -0.0249581 17.5505 -1.32767 -2.18636 -0.647466 2.71024
lowerback 4.54823 2.78586 -1.38107
upperback 1.56033 3.62112 -2.48612
thorax -0.866533 1.81324 -1.9659
lowerneck -0.553008 -4.71334 -7.30575
upperneck 7.74229 -6.94411 11.3008
head 3.02426 -3.31717 4.40285
rclavicle -4.02042e-014 3.81667e-014
rhumerus 47.5767 20.817 -11.5245
rradius 102.272
rwrist -43.0286
rhand -8.20111 28.3723
rfingers 7.12502
rthumb 17.7153 -0.84069
lclavicle -4.02042e-014 3.81667e-014
lhumerus -0.51944 -43.9293 94.1535
lradius 96.5097
lwrist 9.01277
lhand -36.3376 9.00671
lfingers 7.12502
lthumb -9.43558 38.7755
rfemur -13.4645 2.44258 15.6979
rtibia 37.9342
rfoot -21.2535 -11.3546
rtoes -11.0475
lfemur -11.5746 -1.63756 -21.512
ltibia 34.9286
lfoot -21.296 7.83417
ltoes -14.477
2860
root -0.0261145 17.5439 -1.32575 -2.23604 -0.538947 2.70511
lowerback 4.53709 2.77002 -1.46301
upperback 1.6025 3.5984 -2.44136
thorax -0.825465 1.80161 -1.87122
lowerneck -0.673184 -4.70385 -7.40264
upperneck 7.82489 -6.92527 11.2531
head 3.06878 -3.30685 4.40148
rclavicle -1.81391e-015 1.15295e-014
rhumerus 47.7771 22.2811 -10.1337
rradius 103.022
rwrist -42.8311
rhand -8.12856 28.5182
rfingers 7.12502
rthumb 17.7851 -0.688486
lclavicle -1.81391e-015 1.15295e-014
lhumerus -0.541345 -43.9042 94.2993
lradius 96.6717
lwrist 9.01495
lhand -36.4459 8.79592
lfingers 7.12502
lthumb -9.54009 38.5599
rfemur -13.4562 2.39514 15.7165
rtibia 38.0516
rfoot -21.241 -11.5269
rtoes -11.6057
lfemur -11.5843 -1.67962 -21.5028
ltibia 35.0182
lfoot -21.2835 7.72712
ltoes -14.4167
2861
root -0.0256881 17.5406 -1.32529 -2.23722 -0.40143 2.72974
lowerback 4.48458 2.76125 -1.5389
upperback 1.64038 3.58639 -2.42739
thorax -0.763075 1.7954 -1.80992
lowerneck -0.807034 -4.7192 -7.5402
upperneck 7.93384 -6.94719 11.2936
head 3.13162 -3.31432 4.43181
rclavicle 1.83627e-014 1.07344e-014
rhumerus 47.9828 23.6993 -8.75302
rradius 103.651
rwrist -42.2947
rhand -8.08863 28.9949
rfingers 7.12502
rthumb 17.8236 -0.208269
lclavicle 1.83627e-014 1.07344e-014
lhumerus -0.5037 -43.9445 94.3769
lradius 96.7929
lwrist 8.93051
lhand -36.5517 8.74222
lfingers 7.12502
lthumb -9.6421 38.5016
rfemur -13.4894 2.32828 15.6904
rtibia 38.1546
rfoot -21.3345 -11.6064
rtoes -11.5376
lfemur -11.6481 -1.75221 -21.536
ltibia 35.1034
lfoot -21.233 7.63549
ltoes -14.3289
2862
root -0.0245861 17.5412 -1.32538 -2.23801 -0.298254 2.64723
lowerback 4.43889 2.77625 -1.48013
upperback 1.68374 3.61195 -2.40596
thorax -0.690368 1.80836 -1.8179
lowerneck -0.931185 -4.7534 -7.60794
upperneck 8.00996 -6.99385 11.3271
head 3.18302 -3.33308 4.44762
rclavicle -2.68111e-014 1.59028e-014
rhumerus 48.2354 25.0151 -7.38189
rradius 104.19
rwrist -41.4944
rhand -8.03811 29.2667
rfingers 7.12502
rthumb 17.8722 0.0679462
lclavicle -2.68111e-014 1.59028e-014
lhumerus -0.436905 -44.0962 94.4301
lradius 96.9582
lwrist 8.7767
lhand -36.6964 8.73461
lfingers 7.12502
lthumb -9.78172 38.4874
rfemur -13.4828 2.29511 15.7632
rtibia 38.2106
rfoot -21.5205 -11.4654
rtoes -10.537
lfemur -11.7062 -1.77627 -21.451
ltibia 35.1923
lfoot -21.2144 7.58722
ltoes -14.479
